<svg width="16" height="16" viewBox="0 0 16 16" fill="none" xmlns="http://www.w3.org/2000/svg">
<rect width="16" height="16" fill="white" fill-opacity="0.01"/>
<path fill-rule="evenodd" clip-rule="evenodd" d="M5.86668 1.06668C5.57213 1.06668 5.33335 1.30546 5.33335 1.60001C5.33335 1.89456 5.57213 2.13335 5.86668 2.13335H10.1333C10.4279 2.13335 10.6667 1.89456 10.6667 1.60001C10.6667 1.30546 10.4279 1.06668 10.1333 1.06668H5.86668ZM3.20001 3.73335C3.20001 3.4388 3.4388 3.20001 3.73335 3.20001H5.33335H10.6667H12.2667C12.5612 3.20001 12.8 3.4388 12.8 3.73335C12.8 4.0279 12.5612 4.26668 12.2667 4.26668H11.7333V12.8C11.7333 13.3891 11.2558 13.8667 10.6667 13.8667H5.33335C4.74425 13.8667 4.26668 13.3891 4.26668 12.8V4.26668H3.73335C3.4388 4.26668 3.20001 4.0279 3.20001 3.73335ZM5.33335 4.26668H10.6667V12.8H5.33335V4.26668Z" fill="#1C2024"/>
</svg>
